<svg xmlns="http://www.w3.org/2000/svg" viewBox="0 0 32 32">
  <defs>
    <linearGradient id="g" x1="0" y1="0" x2="1" y2="1">
      <stop offset="0%" stop-color="#F5E6B8"/>
      <stop offset="100%" stop-color="#8B6914"/>
    </linearGradient>
  </defs>
  <circle cx="16" cy="16" r="15" fill="#0D0A08" stroke="#C9A05C" stroke-width="0.5"/>
  <!-- 莲花花瓣 -->
  <path d="M16 4 C12 12, 6 18, 10 22 C12 24, 16 20, 16 16 C16 20, 20 24, 22 22 C26 18, 20 12, 16 4Z" fill="url(#g)" opacity="0.3"/>
  <path d="M16 7 C13 13, 9 17, 12 20 C14 22, 16 19, 16 16 C16 19, 18 22, 20 20 C23 17, 19 13, 16 7Z" fill="url(#g)" opacity="0.5"/>
  <circle cx="16" cy="16" r="3" fill="#C9A05C" opacity="0.6"/>
  <circle cx="16" cy="16" r="1.5" fill="#F5E6B8" opacity="0.8"/>
</svg>
