<svg xmlns="http://www.w3.org/2000/svg" width="400" height="400" viewBox="0 0 400 400">
  <defs>
    <linearGradient id="bgGrad" x1="0" y1="0" x2="1" y2="1">
      <stop offset="0%" stop-color="#1A1410"/>
      <stop offset="100%" stop-color="#0D0A08"/>
    </linearGradient>
    <linearGradient id="goldGrad" x1="0" y1="0" x2="1" y2="1">
      <stop offset="0%" stop-color="#C9A05C"/>
      <stop offset="100%" stop-color="#8B6914"/>
    </linearGradient>
    <linearGradient id="goldLight" x1="0" y1="0" x2="1" y2="1">
      <stop offset="0%" stop-color="#F5E6B8"/>
      <stop offset="100%" stop-color="#C9A05C"/>
    </linearGradient>
  </defs>

  <!-- 背景 -->
  <rect width="400" height="400" rx="24" fill="url(#bgGrad)"/>

  <!-- 外框装饰线 -->
  <rect x="16" y="16" width="368" height="368" rx="20" fill="none" stroke="url(#goldGrad)" stroke-width="1.5" stroke-opacity="0.4"/>
  <rect x="24" y="24" width="352" height="352" rx="16" fill="none" stroke="url(#goldGrad)" stroke-width="0.5" stroke-opacity="0.2"/>

  <!-- 四角定位符 -->
  <!-- 左上角 -->
  <rect x="40" y="40" width="48" height="10" rx="3" fill="url(#goldGrad)" opacity="0.8"/>
  <rect x="40" y="40" width="10" height="48" rx="3" fill="url(#goldGrad)" opacity="0.8"/>
  <!-- 右上角 -->
  <rect x="312" y="40" width="48" height="10" rx="3" fill="url(#goldGrad)" opacity="0.8"/>
  <rect x="350" y="40" width="10" height="48" rx="3" fill="url(#goldGrad)" opacity="0.8"/>
  <!-- 左下角 -->
  <rect x="40" y="350" width="48" height="10" rx="3" fill="url(#goldGrad)" opacity="0.8"/>
  <rect x="40" y="312" width="10" height="48" rx="3" fill="url(#goldGrad)" opacity="0.8"/>
  <!-- 右下角 -->
  <rect x="312" y="350" width="48" height="10" rx="3" fill="url(#goldGrad)" opacity="0.8"/>
  <rect x="350" y="312" width="10" height="48" rx="3" fill="url(#goldGrad)" opacity="0.8"/>

  <!-- QR码图案 - 用网格模拟 -->
  <g opacity="0.15">
    <!-- 模拟QR码数据模块 -->
    <rect x="58" y="58" width="12" height="12" rx="1" fill="#C9A05C"/>
    <rect x="82" y="58" width="12" height="12" rx="1" fill="#C9A05C"/>
    <rect x="106" y="58" width="12" height="12" rx="1" fill="#C9A05C"/>
    <rect x="130" y="58" width="12" height="12" rx="1" fill="#C9A05C"/>
    <rect x="178" y="58" width="12" height="12" rx="1" fill="#C9A05C"/>
    <rect x="202" y="58" width="12" height="12" rx="1" fill="#C9A05C"/>
    <rect x="250" y="58" width="12" height="12" rx="1" fill="#C9A05C"/>
    <rect x="274" y="58" width="12" height="12" rx="1" fill="#C9A05C"/>
    <rect x="298" y="58" width="12" height="12" rx="1" fill="#C9A05C"/>
    <rect x="58" y="82" width="12" height="12" rx="1" fill="#C9A05C"/>
    <rect x="130" y="82" width="12" height="12" rx="1" fill="#C9A05C"/>
    <rect x="154" y="82" width="12" height="12" rx="1" fill="#C9A05C"/>
    <rect x="178" y="82" width="12" height="12" rx="1" fill="#C9A05C"/>
    <rect x="226" y="82" width="12" height="12" rx="1" fill="#C9A05C"/>
    <rect x="274" y="82" width="12" height="12" rx="1" fill="#C9A05C"/>
    <rect x="298" y="82" width="12" height="12" rx="1" fill="#C9A05C"/>
    <rect x="58" y="106" width="12" height="12" rx="1" fill="#C9A05C"/>
    <rect x="82" y="106" width="12" height="12" rx="1" fill="#C9A05C"/>
    <rect x="130" y="106" width="12" height="12" rx="1" fill="#C9A05C"/>
    <rect x="154" y="106" width="12" height="12" rx="1" fill="#C9A05C"/>
    <rect x="178" y="106" width="12" height="12" rx="1" fill="#C9A05C"/>
    <rect x="226" y="106" width="12" height="12" rx="1" fill="#C9A05C"/>
    <rect x="274" y="106" width="12" height="12" rx="1" fill="#C9A05C"/>
    <rect x="298" y="106" width="12" height="12" rx="1" fill="#C9A05C"/>
    <rect x="58" y="130" width="12" height="12" rx="1" fill="#C9A05C"/>
    <rect x="106" y="130" width="12" height="12" rx="1" fill="#C9A05C"/>
    <rect x="154" y="130" width="12" height="12" rx="1" fill="#C9A05C"/>
    <rect x="202" y="130" width="12" height="12" rx="1" fill="#C9A05C"/>
    <rect x="226" y="130" width="12" height="12" rx="1" fill="#C9A05C"/>
    <rect x="250" y="130" width="12" height="12" rx="1" fill="#C9A05C"/>
    <rect x="274" y="130" width="12" height="12" rx="1" fill="#C9A05C"/>
    <rect x="58" y="154" width="12" height="12" rx="1" fill="#C9A05C"/>
    <rect x="82" y="154" width="12" height="12" rx="1" fill="#C9A05C"/>
    <rect x="106" y="154" width="12" height="12" rx="1" fill="#C9A05C"/>
    <rect x="130" y="154" width="12" height="12" rx="1" fill="#C9A05C"/>
    <rect x="154" y="154" width="12" height="12" rx="1" fill="#C9A05C"/>
    <rect x="202" y="154" width="12" height="12" rx="1" fill="#C9A05C"/>
    <rect x="250" y="154" width="12" height="12" rx="1" fill="#C9A05C"/>
    <rect x="274" y="154" width="12" height="12" rx="1" fill="#C9A05C"/>
    <rect x="298" y="154" width="12" height="12" rx="1" fill="#C9A05C"/>
    <rect x="82" y="178" width="12" height="12" rx="1" fill="#C9A05C"/>
    <rect x="130" y="178" width="12" height="12" rx="1" fill="#C9A05C"/>
    <rect x="178" y="178" width="12" height="12" rx="1" fill="#C9A05C"/>
    <rect x="226" y="178" width="12" height="12" rx="1" fill="#C9A05C"/>
    <rect x="250" y="178" width="12" height="12" rx="1" fill="#C9A05C"/>
    <rect x="274" y="178" width="12" height="12" rx="1" fill="#C9A05C"/>
    <rect x="58" y="202" width="12" height="12" rx="1" fill="#C9A05C"/>
    <rect x="106" y="202" width="12" height="12" rx="1" fill="#C9A05C"/>
    <rect x="130" y="202" width="12" height="12" rx="1" fill="#C9A05C"/>
    <rect x="154" y="202" width="12" height="12" rx="1" fill="#C9A05C"/>
    <rect x="202" y="202" width="12" height="12" rx="1" fill="#C9A05C"/>
    <rect x="226" y="202" width="12" height="12" rx="1" fill="#C9A05C"/>
    <rect x="250" y="202" width="12" height="12" rx="1" fill="#C9A05C"/>
    <rect x="58" y="226" width="12" height="12" rx="1" fill="#C9A05C"/>
    <rect x="82" y="226" width="12" height="12" rx="1" fill="#C9A05C"/>
    <rect x="106" y="226" width="12" height="12" rx="1" fill="#C9A05C"/>
    <rect x="178" y="226" width="12" height="12" rx="1" fill="#C9A05C"/>
    <rect x="202" y="226" width="12" height="12" rx="1" fill="#C9A05C"/>
    <rect x="250" y="226" width="12" height="12" rx="1" fill="#C9A05C"/>
    <rect x="274" y="226" width="12" height="12" rx="1" fill="#C9A05C"/>
    <rect x="298" y="226" width="12" height="12" rx="1" fill="#C9A05C"/>
    <rect x="58" y="250" width="12" height="12" rx="1" fill="#C9A05C"/>
    <rect x="106" y="250" width="12" height="12" rx="1" fill="#C9A05C"/>
    <rect x="154" y="250" width="12" height="12" rx="1" fill="#C9A05C"/>
    <rect x="202" y="250" width="12" height="12" rx="1" fill="#C9A05C"/>
    <rect x="226" y="250" width="12" height="12" rx="1" fill="#C9A05C"/>
    <rect x="274" y="250" width="12" height="12" rx="1" fill="#C9A05C"/>
    <rect x="58" y="274" width="12" height="12" rx="1" fill="#C9A05C"/>
    <rect x="82" y="274" width="12" height="12" rx="1" fill="#C9A05C"/>
    <rect x="130" y="274" width="12" height="12" rx="1" fill="#C9A05C"/>
    <rect x="154" y="274" width="12" height="12" rx="1" fill="#C9A05C"/>
    <rect x="178" y="274" width="12" height="12" rx="1" fill="#C9A05C"/>
    <rect x="202" y="274" width="12" height="12" rx="1" fill="#C9A05C"/>
    <rect x="250" y="274" width="12" height="12" rx="1" fill="#C9A05C"/>
    <rect x="298" y="274" width="12" height="12" rx="1" fill="#C9A05C"/>
    <rect x="106" y="298" width="12" height="12" rx="1" fill="#C9A05C"/>
    <rect x="130" y="298" width="12" height="12" rx="1" fill="#C9A05C"/>
    <rect x="154" y="298" width="12" height="12" rx="1" fill="#C9A05C"/>
    <rect x="202" y="298" width="12" height="12" rx="1" fill="#C9A05C"/>
    <rect x="226" y="298" width="12" height="12" rx="1" fill="#C9A05C"/>
    <rect x="250" y="298" width="12" height="12" rx="1" fill="#C9A05C"/>
    <rect x="274" y="298" width="12" height="12" rx="1" fill="#C9A05C"/>
    <rect x="58" y="322" width="12" height="12" rx="1" fill="#C9A05C"/>
    <rect x="106" y="322" width="12" height="12" rx="1" fill="#C9A05C"/>
    <rect x="130" y="322" width="12" height="12" rx="1" fill="#C9A05C"/>
    <rect x="178" y="322" width="12" height="12" rx="1" fill="#C9A05C"/>
    <rect x="226" y="322" width="12" height="12" rx="1" fill="#C9A05C"/>
    <rect x="298" y="322" width="12" height="12" rx="1" fill="#C9A05C"/>
    <rect x="106" y="346" width="12" height="12" rx="1" fill="#C9A05C"/>
    <rect x="178" y="346" width="12" height="12" rx="1" fill="#C9A05C"/>
    <rect x="226" y="346" width="12" height="12" rx="1" fill="#C9A05C"/>
    <rect x="250" y="346" width="12" height="12" rx="1" fill="#C9A05C"/>
    <rect x="298" y="346" width="12" height="12" rx="1" fill="#C9A05C"/>
  </g>

  <!-- 中心微信图标区域 -->
  <rect x="140" y="140" width="120" height="120" rx="60" fill="#0D0A08" stroke="url(#goldGrad)" stroke-width="1.5" stroke-opacity="0.6"/>
  <rect x="150" y="150" width="100" height="100" rx="50" fill="#1A1410" stroke="url(#goldGrad)" stroke-width="0.5" stroke-opacity="0.3"/>

  <!-- 微信聊天气泡图标 -->
  <g transform="translate(200, 200)">
    <!-- 左侧气泡 -->
    <ellipse cx="-18" cy="-2" rx="22" ry="16" fill="none" stroke="url(#goldLight)" stroke-width="1.8"/>
    <circle cx="-26" cy="-5" r="2" fill="url(#goldLight)"/>
    <circle cx="-18" cy="-5" r="2" fill="url(#goldLight)"/>
    <circle cx="-10" cy="-5" r="2" fill="url(#goldLight)"/>
    <!-- 右侧气泡 -->
    <ellipse cx="18" cy="-2" rx="22" ry="16" fill="none" stroke="url(#goldLight)" stroke-width="1.8"/>
    <circle cx="10" cy="-5" r="2" fill="url(#goldLight)"/>
    <circle cx="18" cy="-5" r="2" fill="url(#goldLight)"/>
    <circle cx="26" cy="-5" r="2" fill="url(#goldLight)"/>
  </g>

  <!-- 底部文字 -->
  <text x="200" y="380" text-anchor="middle" fill="#C9A05C" font-size="12" font-family="'Noto Serif SC', serif" opacity="0.8">
    扫码进入缘舍小程序
  </text>
  <text x="200" y="396" text-anchor="middle" fill="#C9A05C" font-size="8" font-family="'Noto Serif SC', serif" opacity="0.4">
    注册后替换为微信官方小程序码
  </text>
</svg>
